<svg xmlns="http://www.w3.org/2000/svg" width="39.278" height="37.765" viewBox="0 0 39.278 37.765">
  <g id="artists___creators" data-name="artists_&amp;_creators" transform="translate(-4.285 -4.817)">
    <path id="Caminho_1175" data-name="Caminho 1175" d="M23.5,41A17.5,17.5,0,1,0,6,23.5,17.5,17.5,0,0,0,23.5,41Z" fill="#f7d036"/>
    <path id="Caminho_1176" data-name="Caminho 1176" d="M4.382,31.351l0,0a.321.321,0,0,0,0,.453l.229.23a.318.318,0,0,0,.451,0l0,0a.321.321,0,0,0,0-.453l-.229-.23A.318.318,0,0,0,4.382,31.351Z" fill="#7196ff"/>
    <path id="Caminho_1177" data-name="Caminho 1177" d="M6.2,33.176l0,0a.321.321,0,0,0,0,.453l.229.23a.318.318,0,0,0,.451,0l0,0a.321.321,0,0,0,0-.453l-.229-.23A.318.318,0,0,0,6.2,33.176Z" fill="#7196ff"/>
    <path id="Caminho_1178" data-name="Caminho 1178" d="M6.878,31.357l0,0a.318.318,0,0,0-.451,0l-.229.23a.321.321,0,0,0,0,.453l0,0a.318.318,0,0,0,.451,0l.229-.23A.321.321,0,0,0,6.878,31.357Z" fill="#7196ff"/>
    <path id="Caminho_1179" data-name="Caminho 1179" d="M5.069,33.182l0,0a.318.318,0,0,0-.451,0l-.229.23a.321.321,0,0,0,0,.453l0,0a.318.318,0,0,0,.451,0l.229-.23A.321.321,0,0,0,5.069,33.182Z" fill="#7196ff"/>
    <path id="Caminho_1180" data-name="Caminho 1180" d="M41.572,35.855a.443.443,0,1,0-.886,0V36.3a.443.443,0,1,0,.886,0Z" fill="#f47fff"/>
    <path id="Caminho_1181" data-name="Caminho 1181" d="M41.572,39.415a.443.443,0,1,0-.886,0v.441a.443.443,0,1,0,.886,0Z" fill="#f47fff"/>
    <path id="Caminho_1182" data-name="Caminho 1182" d="M43.117,38.294a.444.444,0,1,0,0-.888h-.44a.444.444,0,1,0,0,.888Z" fill="#f47fff"/>
    <path id="Caminho_1183" data-name="Caminho 1183" d="M39.575,38.3a.444.444,0,1,0,0-.888h-.44a.444.444,0,1,0,0,.888Z" fill="#f47fff"/>
    <path id="Caminho_1184" data-name="Caminho 1184" d="M8.517,9.093,8,10.164a.292.292,0,0,0,.39.392l1.067-.486a.29.29,0,0,1,.242,0l1.067.513a.292.292,0,0,0,.391-.392l-.512-1.07a.293.293,0,0,1,0-.254l.512-1.07a.293.293,0,0,0-.031-.337.291.291,0,0,0-.327-.083L9.7,7.89a.291.291,0,0,1-.253,0L8.38,7.377a.292.292,0,0,0-.39.392l.517,1.07a.293.293,0,0,1,.011.254Z" fill="#60cfac"/>
    <path id="Caminho_1185" data-name="Caminho 1185" d="M14.259,23.512l-1.975-1.142V37.726l1.975,1.142Z" fill="#9ea5b8"/>
    <path id="Caminho_1186" data-name="Caminho 1186" d="M12.285,22.369l16.5-9.557V28.169l-16.5,9.557Z" fill="#9ea5b8"/>
    <path id="Caminho_1187" data-name="Caminho 1187" d="M20.535,5.738C16,8.365,12.285,15.853,12.285,22.369l16.5-9.541C28.785,6.3,25.1,3.112,20.535,5.738Z" fill="#9ea5b8"/>
    <path id="Caminho_1188" data-name="Caminho 1188" d="M14.259,23.512l16.494-9.557V29.311L14.259,38.868Z" fill="#fff"/>
    <path id="Caminho_1189" data-name="Caminho 1189" d="M22.5,6.88c-4.532,2.627-8.25,10.114-8.25,16.631l16.5-9.579C30.753,7.438,27.041,4.254,22.5,6.88Z" fill="#fff"/>
    <path id="Caminho_1190" data-name="Caminho 1190" d="M22.5,9.772c-3.454,2-6.275,8.023-6.275,13.332v3.051L28.784,18.9V15.831C28.784,10.495,25.958,7.769,22.5,9.772Z" fill="#0e0d33"/>
    <path id="Caminho_1191" data-name="Caminho 1191" d="M16.228,24.428l12.556-7.273v13.3L16.228,37.726Z" fill="#0e0d33"/>
    <path id="Caminho_1192" data-name="Caminho 1192" d="M37.227,18.728l-8.442-1.573-1.4.806v13.3l9.141,1.705.7-.938Z" fill="#8c5950"/>
    <path id="Caminho_1193" data-name="Caminho 1193" d="M36.528,19.666l-9.141-1.7v13.3l9.141,1.7Z" fill="#61393f"/>
    <path id="Caminho_1194" data-name="Caminho 1194" d="M37.227,7.956V18.728l-9.141-1.7C28.086,11.1,32.2,7.024,37.227,7.956Z" fill="#784343"/>
    <path id="Caminho_1195" data-name="Caminho 1195" d="M20.249,19.908v22.4l-2.9-4.856v-13.3C17.35,19.147,18.654,17.243,20.249,19.908Z" fill="#784343"/>
    <path id="Caminho_1196" data-name="Caminho 1196" d="M36.528,8.894V19.666l-9.135-1.705C27.393,12.04,31.507,7.962,36.528,8.894Z" fill="#61393f"/>
    <path id="Caminho_1197" data-name="Caminho 1197" d="M20.634,32.876l-.523-2.058" fill="none" stroke="#9ea5b8" stroke-linecap="round" stroke-miterlimit="10" stroke-width="2"/>
    <path id="Caminho_1198" data-name="Caminho 1198" d="M17.18,23.876l3.069,5.137v13.3l-1.122.27-2.9-4.856v-13.3Z" fill="#8c5950"/>
    <path id="Caminho_1199" data-name="Caminho 1199" d="M16.228,24.428l2.9,4.856v13.3l-2.9-4.856Z" fill="#9c685c"/>
    <path id="Caminho_1200" data-name="Caminho 1200" d="M19.127,20.179l1.122-.27v22.4l-1.122.27Z" fill="#ad7556"/>
    <path id="Caminho_1201" data-name="Caminho 1201" d="M17.609,19l1.122-.276,1.518,1.186-1.122.27Z" fill="#784343"/>
    <path id="Caminho_1202" data-name="Caminho 1202" d="M36.528,8.894l.7-.938V32.026l-.7.938Z" fill="#ad7556"/>
    <path id="Caminho_1203" data-name="Caminho 1203" d="M19.127,20.179v22.4l-2.9-4.856V24.417C16.228,19.45,17.532,17.508,19.127,20.179Z" fill="#8b574f"/>
    <path id="Caminho_1204" data-name="Caminho 1204" d="M34.713,8.768v23.86l-.814-.149V8.861A7.776,7.776,0,0,1,34.713,8.768Z" fill="#542c33"/>
    <path id="Caminho_1205" data-name="Caminho 1205" d="M31.76,9.6V32.076l-.808-.149V10.114A6.907,6.907,0,0,1,31.76,9.6Z" fill="#542c33"/>
    <path id="Caminho_1206" data-name="Caminho 1206" d="M29.186,11.907V31.59l-.786-.143V13.287A8.073,8.073,0,0,1,29.186,11.907Z" fill="#542c33"/>
    <path id="Caminho_1207" data-name="Caminho 1207" d="M18.533,19.379v22.2l-.462-.772V19.037A1.418,1.418,0,0,1,18.533,19.379Z" fill="#784343"/>
    <path id="Caminho_1208" data-name="Caminho 1208" d="M17.3,19.169V39.508l-.445-.745V19.886A2.066,2.066,0,0,1,17.3,19.169Z" fill="#784343"/>
    <path id="Caminho_1209" data-name="Caminho 1209" d="M33.911,26.881a1.824,1.824,0,1,0-2.095-1.358A1.771,1.771,0,0,0,33.911,26.881Z" fill="none" stroke="#9ea5b8" stroke-miterlimit="10" stroke-width="2"/>
    <path id="Caminho_1210" data-name="Caminho 1210" d="M33.679,23.743v-.966" fill="none" stroke="#9ea5b8" stroke-linecap="round" stroke-miterlimit="10" stroke-width="2"/>
  </g>
</svg>
