<svg xmlns="http://www.w3.org/2000/svg" width="44.122" height="35.999" viewBox="0 0 44.122 35.999">
  <g id="create_my_own" transform="translate(-1.205 -5.997)">
    <path id="Caminho_1211" data-name="Caminho 1211" d="M23.5,42A17.5,17.5,0,1,0,6,24.5,17.5,17.5,0,0,0,23.5,42Z" fill="#718ef7"/>
    <path id="Caminho_1212" data-name="Caminho 1212" d="M31.524,16.888l-3.1-3.1L26.5,15.7l3.1,3.1Z" fill="#f7e080"/>
    <path id="Caminho_1213" data-name="Caminho 1213" d="M31.525,16.884l-3.1-3.1,2.082-.145L31.67,14.8Z" fill="#f7e080"/>
    <path id="Caminho_1214" data-name="Caminho 1214" d="M28.792,9.911a1.54,1.54,0,1,1-1.141.468A1.614,1.614,0,0,1,28.792,9.911Zm0-2.044a3.648,3.648,0,1,0,1.4.28A3.659,3.659,0,0,0,28.792,7.867Z" fill="#f7e080"/>
    <path id="Caminho_1215" data-name="Caminho 1215" d="M33.8,14.92a1.614,1.614,0,1,1-1.024.365A1.615,1.615,0,0,1,33.8,14.92Zm0-2.044a3.627,3.627,0,1,0,1.4.278A3.66,3.66,0,0,0,33.8,12.876Z" fill="#f7e080"/>
    <path id="Caminho_1216" data-name="Caminho 1216" d="M35.647,8.044a1.6,1.6,0,1,1-1.141.473A1.614,1.614,0,0,1,35.647,8.044Zm0-2.044a3.627,3.627,0,1,0,1.4.279A3.659,3.659,0,0,0,35.647,6Z" fill="#f7e080"/>
    <path id="Caminho_1217" data-name="Caminho 1217" d="M33.039,29.525l-5.814,5.813a5.257,5.257,0,0,1-7.434,0l-3.866-3.865L29.572,17.827l3.466,3.466a5.821,5.821,0,0,1,0,8.233Z" fill="#ebf0f7"/>
    <path id="Caminho_1218" data-name="Caminho 1218" d="M22.2,23.953l5.521-.947-.1,1.437a12.911,12.911,0,0,0,.726,5.767,4.664,4.664,0,0,1-1.028,5.046l-.506.538a4.665,4.665,0,0,1-6.591,0L15.3,30.877Z" fill="#b2c1d1"/>
    <path id="Caminho_1219" data-name="Caminho 1219" d="M29.594,18.8,26.5,15.684,6.338,35.859l2.889,2.889a.307.307,0,0,0,.43,0Z" fill="#f7e080"/>
    <path id="Caminho_1220" data-name="Caminho 1220" d="M12.661,30.7,6.919,36.44,1.334,30.856a.446.446,0,0,1,0-.629l1.442-1.442a1.076,1.076,0,0,1,1.539,0l.135.129a1.173,1.173,0,0,1,.274,1.076,1.916,1.916,0,1,0,1.415-1.469.98.98,0,0,1-.952-.231l-.3-.3a.941.941,0,0,1,0-1.329l1.566-1.55a.441.441,0,0,1,.624,0Z" fill="#f7e080"/>
    <path id="Caminho_1221" data-name="Caminho 1221" d="M11.176,37.235l-3.1-3.1-.594.593,3.1,3.1Z" fill="#f5b312"/>
    <path id="Caminho_1222" data-name="Caminho 1222" d="M16.429,31.98l-3.1-3.1-1.248,1.248,3.1,3.1Z" fill="#f5b312"/>
    <path id="Caminho_1223" data-name="Caminho 1223" d="M26.981,24.789l0,0a2.507,2.507,0,0,0,0-3.546L23.241,17.5a2.508,2.508,0,0,0-3.546,0l0,0a2.507,2.507,0,0,0,0,3.546l3.744,3.743A2.507,2.507,0,0,0,26.981,24.789Z" fill="#cbd5e0"/>
    <path id="Caminho_1224" data-name="Caminho 1224" d="M23.434,28.341l0,0a2.507,2.507,0,0,0,0-3.545l-3.744-3.743a2.508,2.508,0,0,0-3.546,0l0,0a2.507,2.507,0,0,0,0,3.546l3.744,3.743A2.508,2.508,0,0,0,23.434,28.341Z" fill="#cbd5e0"/>
    <path id="Caminho_1225" data-name="Caminho 1225" d="M19.884,31.889l0,0a2.507,2.507,0,0,0,0-3.546L16.144,24.6a2.508,2.508,0,0,0-3.546,0l0,0a2.507,2.507,0,0,0,0,3.546l3.744,3.743A2.508,2.508,0,0,0,19.884,31.889Z" fill="#cbd5e0"/>
    <path id="Caminho_1226" data-name="Caminho 1226" d="M30.368,19.66v-.005a2.507,2.507,0,0,0-2.507-2.507h-4.38a2.507,2.507,0,0,0-2.507,2.507v.005a2.507,2.507,0,0,0,2.507,2.507h4.38A2.507,2.507,0,0,0,30.368,19.66Z" fill="#ebf0f7"/>
    <path id="Caminho_1227" data-name="Caminho 1227" d="M25.642,37.792l9.633-9.632-.845-.844L24.8,36.947Z" fill="#fff"/>
    <path id="Caminho_1228" data-name="Caminho 1228" d="M27.178,39.324l9.538-9.537a1.272,1.272,0,1,0-1.8-1.8l-9.538,9.537a1.272,1.272,0,1,0,1.8,1.8Z" fill="#ebf0f7"/>
    <path id="Caminho_1229" data-name="Caminho 1229" d="M42.061,12.978a.331.331,0,1,0-.662,0v.328a.331.331,0,1,0,.662,0Z" fill="#f7d036"/>
    <path id="Caminho_1230" data-name="Caminho 1230" d="M42.061,15.63a.331.331,0,1,0-.662,0v.328a.331.331,0,1,0,.662,0Z" fill="#f7d036"/>
    <path id="Caminho_1231" data-name="Caminho 1231" d="M43.217,14.8a.331.331,0,1,0,0-.662h-.328a.331.331,0,1,0,0,.662Z" fill="#f7d036"/>
    <path id="Caminho_1232" data-name="Caminho 1232" d="M40.565,14.8a.331.331,0,1,0,0-.662h-.328a.331.331,0,1,0,0,.662Z" fill="#f7d036"/>
    <path id="Caminho_1233" data-name="Caminho 1233" d="M43.374,33.024a.433.433,0,1,0-.866,0v.43a.433.433,0,1,0,.866,0Z" fill="#f47fff"/>
    <path id="Caminho_1234" data-name="Caminho 1234" d="M43.374,36.494a.433.433,0,1,0-.866,0v.43a.433.433,0,1,0,.866,0Z" fill="#f47fff"/>
    <path id="Caminho_1235" data-name="Caminho 1235" d="M44.891,35.4a.433.433,0,1,0,0-.866H44.46a.433.433,0,1,0,0,.866Z" fill="#f47fff"/>
    <path id="Caminho_1236" data-name="Caminho 1236" d="M41.426,35.407a.433.433,0,1,0,0-.866H41a.433.433,0,1,0,0,.866Z" fill="#f47fff"/>
    <path id="Caminho_1237" data-name="Caminho 1237" d="M3.734,17.024,3.2,18.17a.312.312,0,0,0,.42.42l1.146-.538a.35.35,0,0,1,.274,0l1.146.538a.312.312,0,0,0,.42-.42l-.538-1.146a.35.35,0,0,1,0-.274L6.6,15.6a.312.312,0,0,0-.42-.42l-1.146.538a.307.307,0,0,1-.274,0l-1.146-.538a.312.312,0,0,0-.42.42l.538,1.146a.35.35,0,0,1,0,.274Z" fill="#60cfac"/>
  </g>
</svg>
