<svg id="forum_lock__rounded" xmlns="http://www.w3.org/2000/svg" width="24" height="24" viewBox="0 0 24 24">
  <path id="bg" d="M0,0H24V24H0Z" fill="none"/>
  <path id="Sketch-forum" d="M36,32l-4-4H22a2,2,0,0,1-2-2V25H32a1,1,0,0,0,1-.947V22h1a2,2,0,0,1,2,2v8ZM16,27V14a2,2,0,0,1,2-2h8a2,2,0,0,1,2,2v6a2,2,0,0,0,2,2h.73A2.009,2.009,0,0,1,29,23H20l-4,4,0,0Z" transform="translate(-14 -10)" fill="#99aab5"/>
  <path id="Sketch-lock" d="M10.125,4H9.688V3.143a2.188,2.188,0,0,0-4.375,0V4H4.875A.869.869,0,0,0,4,4.857V9.143A.869.869,0,0,0,4.875,10h5.25A.869.869,0,0,0,11,9.143V4.857A.869.869,0,0,0,10.125,4ZM7.5,7.857A.857.857,0,1,1,8.375,7,.869.869,0,0,1,7.5,7.857ZM6.188,4V3.143a1.313,1.313,0,0,1,2.625,0V4Z" transform="translate(12)" fill="#99aab5"/>
</svg>
