<svg xmlns="http://www.w3.org/2000/svg" width="35" height="41" viewBox="0 0 35 41">
  <g id="friends" transform="translate(-8 -3)">
    <circle id="Elipse_77" data-name="Elipse 77" cx="17.5" cy="17.5" r="17.5" transform="translate(8 9)" fill="#60cfac"/>
    <rect id="Ret창ngulo_633" data-name="Ret창ngulo 633" width="21" height="8" rx="1" transform="translate(12 33)" fill="#007aff"/>
    <rect id="Ret창ngulo_634" data-name="Ret창ngulo 634" width="4.5" height="8" rx="0.5" transform="translate(29 11)" fill="#f85ff6"/>
    <circle id="Elipse_78" data-name="Elipse 78" cx="0.5" cy="0.5" r="0.5" transform="translate(30.5 11.5)"/>
    <circle id="Elipse_79" data-name="Elipse 79" cx="0.5" cy="0.5" r="0.5" transform="translate(32 11.5)"/>
    <path id="Caminho_1377" data-name="Caminho 1377" d="M26.25,19.617l-.65-2a3.923,3.923,0,0,0-7.48,2.37l.64,2a6.691,6.691,0,0,1,0,4,6.32,6.32,0,0,0,.38,4.67,6.2,6.2,0,0,0,6.45,3.44,6.3,6.3,0,0,0,3-11.24A6.56,6.56,0,0,1,26.25,19.617Z"/>
    <path id="Caminho_1378" data-name="Caminho 1378" d="M16,33.967a1,1,0,0,1-.94-1.34,76.353,76.353,0,0,1,3.84-8.84,1,1,0,1,1,1.75.97,78.558,78.558,0,0,0-3.71,8.55,1,1,0,0,1-.94.66Z"/>
    <path id="Caminho_1379" data-name="Caminho 1379" d="M30.559,39.447a1,1,0,0,1-1-.85l-.09-.54c-.53-3.44-.85-4.85-3.6-5.08a1,1,0,1,1,.16-1.99c4.43.37,4.91,3.47,5.42,6.76l.08.54a1,1,0,0,1-.83,1.15Z"/>
    <path id="Caminho_1380" data-name="Caminho 1380" d="M36.2,39.447a1,1,0,0,1-1-.74c-.54-2-2-5.39-6.06-5.73a1,1,0,0,1,.17-1.99c3.82.32,6.67,2.94,7.82,7.2a1,1,0,0,1-.7,1.22A.837.837,0,0,1,36.2,39.447Z"/>
    <path id="Caminho_1381" data-name="Caminho 1381" d="M26.61,24.277a1.01,1.01,0,1,1-.29-2c3.256-.992,3.878-2.43,4.279-4.681a1.107,1.107,0,0,1,1.161-.92.993.993,0,0,1,.837,1.148c-.47,2.67-1.305,5.035-5.677,6.362A.922.922,0,0,1,26.61,24.277Z"/>
    <path id="Caminho_1382" data-name="Caminho 1382" d="M25,3a1,1,0,0,1,1,1v9.276a.3.3,0,0,1-.512.212L23,11H14a1,1,0,0,1-1-1V4a1,1,0,0,1,1-1Z" fill="#fff" fill-rule="evenodd"/>
    <circle id="Elipse_80" data-name="Elipse 80" cx="1" cy="1" r="1" transform="translate(24 8) rotate(180)" fill="#fa6ef6"/>
    <circle id="Elipse_81" data-name="Elipse 81" cx="1" cy="1" r="1" transform="translate(20.5 8) rotate(180)" fill="#fa6ef6"/>
    <circle id="Elipse_82" data-name="Elipse 82" cx="1" cy="1" r="1" transform="translate(17 8) rotate(180)" fill="#fa6ef6"/>
  </g>
</svg>
