<svg xmlns="http://www.w3.org/2000/svg" width="40.298" height="36" viewBox="0 0 40.298 36">
  <g id="gaming" transform="translate(-5 -5)">
    <circle id="Elipse_76" data-name="Elipse 76" cx="17.5" cy="17.5" r="17.5" transform="translate(5 5)" fill="#c482ff"/>
    <path id="Caminho_1357" data-name="Caminho 1357" d="M27,9l-1.5,1.5-2-1,1.5,7h4.5l-1-1.5,2-1-2-1L30,11l-2.5.5Z" fill="#ffed00"/>
    <path id="Caminho_1358" data-name="Caminho 1358" d="M36,30H10a2,2,0,0,0-2,2v7a2,2,0,0,0,2,2H36a2,2,0,0,0,2-2V32A2,2,0,0,0,36,30Z" fill="#a120ad"/>
    <path id="Caminho_1359" data-name="Caminho 1359" d="M27.019,18.624l.332-2.8a4.372,4.372,0,0,0-8.679-1.063l-.335,2.764a5.8,5.8,0,0,1-1.651,3.37,7,7,0,1,0,11.1,1.341A5.74,5.74,0,0,1,27.019,18.624Z"/>
    <path id="Caminho_1360" data-name="Caminho 1360" d="M24.506,39.411a1,1,0,0,1-1-.83L23,35.762c-.71-3.49-1-4.15-4.45-4.15a1,1,0,0,1,0-2c4.77,0,5.58,1.67,6.41,5.78l.51,2.84a1,1,0,0,1-.8,1.16Z"/>
    <path id="Caminho_1361" data-name="Caminho 1361" d="M30.706,37.692a1,1,0,0,1-1-.7c-1.42-4.6-2.8-5.38-6.21-5.38a1,1,0,1,1,0-2c4.56,0,6.53,1.65,8.12,6.79a.978.978,0,0,1-.91,1.29Z"/>
    <path id="Caminho_1362" data-name="Caminho 1362" d="M44.956,26.12l-2.6,5.94a7.49,7.49,0,0,1-6.29,4.1,4.1,4.1,0,0,1-3.63-2.17,3.21,3.21,0,0,0-4.72-1.1l-1.71,1.25a10.38,10.38,0,0,1-6.11,2h-1.75c-2.47,0-3.68-1.84-2.69-4.1l2.61-5.94a7.43,7.43,0,0,1,6.28-4.1h18C44.736,22.02,45.936,23.89,44.956,26.12Z" fill="#fff"/>
    <path id="Caminho_1363" data-name="Caminho 1363" d="M26.046,24.65a1.17,1.17,0,0,0-2.34,0v1.24a1.17,1.17,0,1,0,2.34,0Z" fill="#b2c1d1"/>
    <path id="Caminho_1364" data-name="Caminho 1364" d="M43.736,24.65a1.17,1.17,0,1,0-2.34,0v1.24a1.17,1.17,0,1,0,2.34,0Z" fill="#b2c1d1"/>
    <path id="Caminho_1365" data-name="Caminho 1365" d="M37.076,25.95h-5.27a2.46,2.46,0,0,0-2.21,1.39l-.18.38a1.06,1.06,0,0,0,1,1.52h5.26a2.43,2.43,0,0,0,2.17-1.35l.19-.38a1.07,1.07,0,0,0-.96-1.56Z" fill="#f47fff"/>
    <path id="Caminho_1366" data-name="Caminho 1366" d="M12.558,7.746l-.517,1.07a.292.292,0,0,0,.391.392L13.5,8.723a.291.291,0,0,1,.242,0l1.067.513a.292.292,0,0,0,.391-.392l-.512-1.07a.294.294,0,0,1,0-.254L15.2,6.45a.292.292,0,0,0-.358-.419l-1.1.513a.291.291,0,0,1-.253,0L12.421,6.03a.292.292,0,0,0-.391.392l.517,1.07a.293.293,0,0,1,.011.254Z" fill="#ffd836"/>
    <path id="Caminho_1367" data-name="Caminho 1367" d="M10.882,19.447a.443.443,0,1,0-.885,0v.441a.443.443,0,1,0,.885,0Z" fill="#fff"/>
    <path id="Caminho_1368" data-name="Caminho 1368" d="M10.882,23.006a.443.443,0,1,0-.885,0v.441a.443.443,0,1,0,.885,0Z" fill="#fff"/>
    <path id="Caminho_1369" data-name="Caminho 1369" d="M12.427,21.886a.444.444,0,1,0,0-.888h-.44a.444.444,0,1,0,0,.888Z" fill="#fff"/>
    <path id="Caminho_1370" data-name="Caminho 1370" d="M8.885,21.891a.444.444,0,1,0,0-.888h-.44a.444.444,0,1,0,0,.888Z" fill="#fff"/>
    <path id="Caminho_1371" data-name="Caminho 1371" d="M42.229,15.226l0,0a.321.321,0,0,0,0,.453l.229.23a.318.318,0,0,0,.451,0l0,0a.321.321,0,0,0,0-.453l-.229-.23A.318.318,0,0,0,42.229,15.226Z" fill="#60cfac"/>
    <path id="Caminho_1372" data-name="Caminho 1372" d="M44.044,17.051l0,0a.321.321,0,0,0,0,.453l.229.23a.318.318,0,0,0,.451,0l0,0a.321.321,0,0,0,0-.453l-.229-.23A.318.318,0,0,0,44.044,17.051Z" fill="#60cfac"/>
    <path id="Caminho_1373" data-name="Caminho 1373" d="M44.725,15.232l0,0a.318.318,0,0,0-.451,0l-.229.23a.321.321,0,0,0,0,.453l0,0a.318.318,0,0,0,.451,0l.229-.23A.321.321,0,0,0,44.725,15.232Z" fill="#60cfac"/>
    <path id="Caminho_1374" data-name="Caminho 1374" d="M42.916,17.057l0,0a.318.318,0,0,0-.451,0l-.229.23a.321.321,0,0,0,0,.453l0,0a.318.318,0,0,0,.451,0l.229-.23A.321.321,0,0,0,42.916,17.057Z" fill="#60cfac"/>
    <path id="Caminho_1375" data-name="Caminho 1375" d="M24,24.278c-8.636,1.757-7.92.04-5.052-2.278" fill="none" stroke="#1f1f1f" stroke-linecap="round" stroke-miterlimit="10" stroke-width="2"/>
    <path id="Caminho_1376" data-name="Caminho 1376" d="M27.156,21.67a1.01,1.01,0,1,1-.29-2c3.256-.992,3.878-2.43,4.279-4.68a1.107,1.107,0,0,1,1.161-.92.993.993,0,0,1,.837,1.148c-.469,2.67-1.305,5.035-5.677,6.362A.922.922,0,0,1,27.156,21.67Z"/>
  </g>
</svg>
