<svg xmlns="http://www.w3.org/2000/svg" width="39.278" height="43.486" viewBox="0 0 39.278 43.486">
  <g id="local_community" transform="translate(-4.132 -2)">
    <path id="Caminho_1238" data-name="Caminho 1238" d="M23.5,41A17.5,17.5,0,1,0,6,23.5,17.5,17.5,0,0,0,23.5,41Z" fill="#ebf0f7"/>
    <path id="Caminho_1239" data-name="Caminho 1239" d="M4.229,36.534l0,0a.321.321,0,0,0,0,.453l.229.23a.318.318,0,0,0,.451,0l0,0a.321.321,0,0,0,0-.453l-.229-.23A.318.318,0,0,0,4.229,36.534Z" fill="#7196ff"/>
    <path id="Caminho_1240" data-name="Caminho 1240" d="M6.044,38.359l0,0a.321.321,0,0,0,0,.453l.229.23a.318.318,0,0,0,.451,0l0,0a.321.321,0,0,0,0-.453l-.229-.23A.318.318,0,0,0,6.044,38.359Z" fill="#7196ff"/>
    <path id="Caminho_1241" data-name="Caminho 1241" d="M6.725,36.54l0,0a.318.318,0,0,0-.451,0l-.229.23a.321.321,0,0,0,0,.453l0,0a.318.318,0,0,0,.451,0l.229-.23A.321.321,0,0,0,6.725,36.54Z" fill="#7196ff"/>
    <path id="Caminho_1242" data-name="Caminho 1242" d="M4.916,38.365l0,0a.318.318,0,0,0-.451,0l-.229.23a.321.321,0,0,0,0,.453l0,0a.318.318,0,0,0,.451,0l.229-.23A.321.321,0,0,0,4.916,38.365Z" fill="#7196ff"/>
    <path id="Caminho_1243" data-name="Caminho 1243" d="M41.419,41.038a.443.443,0,1,0-.886,0v.441a.443.443,0,1,0,.886,0Z" fill="#f47fff"/>
    <path id="Caminho_1244" data-name="Caminho 1244" d="M41.419,44.6a.443.443,0,1,0-.886,0v.441a.443.443,0,1,0,.886,0Z" fill="#f47fff"/>
    <path id="Caminho_1245" data-name="Caminho 1245" d="M42.964,43.477a.444.444,0,1,0,0-.888h-.44a.444.444,0,1,0,0,.888Z" fill="#f47fff"/>
    <path id="Caminho_1246" data-name="Caminho 1246" d="M39.422,43.483a.444.444,0,1,0,0-.888h-.44a.444.444,0,1,0,0,.888Z" fill="#f47fff"/>
    <path id="Caminho_1247" data-name="Caminho 1247" d="M38.364,14.276l-.517,1.07a.292.292,0,0,0,.214.418.29.29,0,0,0,.177-.026l1.067-.486a.292.292,0,0,1,.242,0l1.067.513a.292.292,0,0,0,.417-.215A.294.294,0,0,0,41,15.374l-.511-1.07a.293.293,0,0,1,0-.254L41,12.979a.292.292,0,0,0-.357-.419l-1.1.513a.29.29,0,0,1-.253,0l-1.067-.513a.292.292,0,0,0-.39.392l.517,1.07a.294.294,0,0,1,.011.254Z" fill="#60cfac"/>
    <path id="Caminho_1248" data-name="Caminho 1248" d="M18.572,24.1a1,1,0,0,1-.85-.49l-4-6.64a1,1,0,0,1,1.71-1l4,6.64a.965.965,0,0,1-.86,1.49Zm9.86-1.05a1.017,1.017,0,0,1-.58-1.85,6.53,6.53,0,0,0,2.72-5.86,1.01,1.01,0,0,1,2-.28,8.5,8.5,0,0,1-3.54,7.77A1,1,0,0,1,28.432,23.054Z"/>
    <path id="Caminho_1249" data-name="Caminho 1249" d="M26.962,17.414l-.36-2.79a4.347,4.347,0,1,0-8.62,1.13l.35,2.75a5.78,5.78,0,0,1-.81,3.7,7,7,0,1,0,11.08-1.44A5.74,5.74,0,0,1,26.962,17.414Z"/>
    <path id="Caminho_1250" data-name="Caminho 1250" d="M30.682,41.3a1,1,0,0,1-1-.73,48.63,48.63,0,0,0-3.67-9.37,1,1,0,1,1,1.72-1,50.073,50.073,0,0,1,3.91,9.9,1,1,0,0,1-.7,1.23A1.144,1.144,0,0,1,30.682,41.3Z"/>
    <path id="Caminho_1251" data-name="Caminho 1251" d="M22.752,42.664a1,1,0,0,1-1-1,41.567,41.567,0,0,0-.83-11,1.014,1.014,0,0,1,2-.34,44.458,44.458,0,0,1,.83,11.38,1,1,0,0,1-1,.96Z"/>
    <path id="Caminho_1252" data-name="Caminho 1252" d="M11.225,2.185a2.2,2.2,0,0,1,2.9,1.133l5.405,12.349L15.5,17.431,10.092,5.082a2.2,2.2,0,0,1,1.133-2.9Z" fill="#ff9a15"/>
    <path id="Caminho_1253" data-name="Caminho 1253" d="M9.432,11.324,14.3,9.194,17.5,16.523,10.45,19.611,8.2,14.462a2.39,2.39,0,0,1,1.235-3.139Z" fill="#ff9a15"/>
    <path id="Caminho_1254" data-name="Caminho 1254" d="M13.538,11.406l.088-.48,3.851.707-.347,1.891-2.44-.448a1.435,1.435,0,0,1-1.152-1.67Z" fill="#ffd836"/>
    <path id="Caminho_1255" data-name="Caminho 1255" d="M17.682,11.434l1.85,4.24-4,1.76v-.1a3.26,3.26,0,0,1,1.68-4.29Z" fill="#ffd836"/>
  </g>
</svg>
