<svg xmlns="http://www.w3.org/2000/svg" width="36.071" height="43.951" viewBox="0 0 36.071 43.951">
  <g id="school_club" transform="translate(-7 -1)">
    <circle id="Elipse_75" data-name="Elipse 75" cx="17.5" cy="17.5" r="17.5" transform="translate(7 7)" fill="#ff78b9"/>
    <path id="Caminho_1256" data-name="Caminho 1256" d="M28.545,20.586V18.334a4.129,4.129,0,0,0-8.257-.12l-.033,2.179a6.977,6.977,0,0,1-1.379,4,6.664,6.664,0,0,0-1.206,4.8A6.531,6.531,0,0,0,22.96,34.8a6.664,6.664,0,0,0,6.851-10.209A7.05,7.05,0,0,1,28.545,20.586Z"/>
    <path id="Caminho_1257" data-name="Caminho 1257" d="M26.972,44.95a.9.9,0,0,1-.873-.913L26.412,30.8a.886.886,0,0,1,.913-.873.9.9,0,0,1,.873.92l-.307,13.228a.9.9,0,0,1-.92.873Z"/>
    <path id="Caminho_1258" data-name="Caminho 1258" d="M22.014,44.95a.9.9,0,0,1-.893-.873l-.307-13.228A.893.893,0,0,1,22.6,30.8l.307,13.235a.893.893,0,0,1-.873.913Z"/>
    <path id="Caminho_1259" data-name="Caminho 1259" d="M20.608,25.41h-.047c-2.846-.16-5.045-1.659-5.471-3.725-.2-.966-.233-3.425,3.745-5.418a.894.894,0,0,1,.8,1.6c-2,1-3.039,2.286-2.792,3.459s1.826,2.186,3.819,2.3a.893.893,0,1,1-.053,1.786Z"/>
    <path id="Caminho_1260" data-name="Caminho 1260" d="M43.071,9.195,38.123,7.6l-2.584,8.024,4.948,1.593Z" fill="#3e70dd"/>
    <path id="Caminho_1261" data-name="Caminho 1261" d="M41.393,6.7l-2.386,7.617-8.663-2.792,2.446-7.6Z" fill="#7191fa"/>
    <path id="Caminho_1262" data-name="Caminho 1262" d="M23.56,31.855a.621.621,0,0,1-.613-.806L32.2,2.333a.666.666,0,0,1,1.226.4L24.166,31.442a.666.666,0,0,1-.606.413Z" fill="#ccd0e3"/>
    <path id="Caminho_1263" data-name="Caminho 1263" d="M23.56,31.855a.622.622,0,0,1-.613-.806l2.439-7.63a.666.666,0,1,1,1.22.393L24.16,31.4a.666.666,0,0,1-.6.453Z" fill="#7196ff"/>
    <path id="Caminho_1264" data-name="Caminho 1264" d="M28.665,30.056a13.762,13.762,0,0,1-3.692-.54.894.894,0,1,1,.413-1.739c.993.233,3.332.786,3.739.32.08-.093.433-.666-.56-3.332a.9.9,0,0,1,1.679-.626c.993,2.666,1.06,4.212.22,5.165a2.5,2.5,0,0,1-1.8.753Z" fill="#1f1f1f"/>
    <path id="Caminho_1265" data-name="Caminho 1265" d="M32.91,3.359A1.18,1.18,0,1,0,31.73,2.18,1.18,1.18,0,0,0,32.91,3.359Z" fill="#7196ff"/>
    <path id="Caminho_1266" data-name="Caminho 1266" d="M39.008,14.315l-3.472,1.313.713-2.2Z" fill="#2f5dd1"/>
    <path id="Caminho_1267" data-name="Caminho 1267" d="M37.2,8.671l.14-.58A1.1,1.1,0,1,0,35.2,7.564l-.14.566a1.806,1.806,0,0,1-.593.953,1.8,1.8,0,0,0-.593,1.173,1.746,1.746,0,0,0,1.04,1.766,1.773,1.773,0,0,0,2.439-1.2,1.794,1.794,0,0,0-.067-1.046A1.825,1.825,0,0,1,37.2,8.671Z" fill="#202225"/>
    <path id="Caminho_1268" data-name="Caminho 1268" d="M37.859,6.991l-2.028-.918-.322.71,2.028.918Z" fill="#ffd836"/>
    <path id="Caminho_1269" data-name="Caminho 1269" d="M37.379,6.773l-.293-.78-.786.3.293.78Z" fill="#ffd836"/>
    <path id="Caminho_1270" data-name="Caminho 1270" d="M13.558,8.746l-.517,1.07a.292.292,0,0,0,.391.392L14.5,9.723a.291.291,0,0,1,.242,0l1.067.513a.292.292,0,0,0,.39-.392l-.511-1.07a.294.294,0,0,1,0-.254L16.2,7.45a.292.292,0,0,0-.357-.419l-1.1.513a.291.291,0,0,1-.253,0L13.421,7.03a.292.292,0,0,0-.391.392l.517,1.07a.293.293,0,0,1,.011.254Z" fill="#4cd964"/>
    <path id="Caminho_1271" data-name="Caminho 1271" d="M37.882,22.447a.443.443,0,1,0-.885,0v.441a.443.443,0,1,0,.885,0Z" fill="#fff"/>
    <path id="Caminho_1272" data-name="Caminho 1272" d="M37.882,26.006a.443.443,0,1,0-.885,0v.441a.443.443,0,1,0,.885,0Z" fill="#fff"/>
    <path id="Caminho_1273" data-name="Caminho 1273" d="M39.427,24.886a.444.444,0,1,0,0-.888h-.44a.444.444,0,1,0,0,.888Z" fill="#fff"/>
    <path id="Caminho_1274" data-name="Caminho 1274" d="M35.885,24.891a.444.444,0,1,0,0-.888h-.44a.444.444,0,1,0,0,.888Z" fill="#fff"/>
    <path id="Caminho_1275" data-name="Caminho 1275" d="M7.229,38.226l0,0a.321.321,0,0,0,0,.453l.229.23a.318.318,0,0,0,.451,0l0,0a.321.321,0,0,0,0-.453l-.229-.23A.318.318,0,0,0,7.229,38.226Z" fill="#fa6ef6"/>
    <path id="Caminho_1276" data-name="Caminho 1276" d="M9.044,40.051l0,0a.321.321,0,0,0,0,.453l.229.23a.318.318,0,0,0,.451,0l0,0a.321.321,0,0,0,0-.453l-.229-.23A.318.318,0,0,0,9.044,40.051Z" fill="#fa6ef6"/>
    <path id="Caminho_1277" data-name="Caminho 1277" d="M9.725,38.232l0,0a.318.318,0,0,0-.451,0l-.229.23a.321.321,0,0,0,0,.453l0,0a.318.318,0,0,0,.451,0l.229-.23A.321.321,0,0,0,9.725,38.232Z" fill="#fa6ef6"/>
    <path id="Caminho_1278" data-name="Caminho 1278" d="M7.915,40.057l0,0a.318.318,0,0,0-.451,0l-.229.23a.321.321,0,0,0,0,.453l0,0a.318.318,0,0,0,.451,0l.229-.23A.321.321,0,0,0,7.915,40.057Z" fill="#fa6ef6"/>
  </g>
</svg>
