<svg xmlns="http://www.w3.org/2000/svg" width="43.914" height="40" viewBox="0 0 43.914 40">
  <g id="study_group" transform="translate(-2 -4)">
    <path id="Caminho_1279" data-name="Caminho 1279" d="M44.139,38.758,41.125,31.2a25.841,25.841,0,0,1-1.775-9.329H35.718a25.219,25.219,0,0,0,1.775,8.131l3.1,7.843a3.673,3.673,0,0,1-1.61,4.541A3.1,3.1,0,0,1,36.255,44h4.334a3.839,3.839,0,0,0,3.55-5.242Z" fill="#113484"/>
    <path id="Caminho_1280" data-name="Caminho 1280" d="M27.917,5.241c1.486,0,2.518.908,2.312,2.023l-.867,4.045H23.913l.826-4.045A3.23,3.23,0,0,1,27.917,5.241Zm0-1.238a4.39,4.39,0,0,0-4.375,3.013l-.867,4.045-.289,1.486h7.966l.206-.949.867-4.086a2.642,2.642,0,0,0-.537-2.27A3.839,3.839,0,0,0,27.917,4Z" fill="#09235e"/>
    <path id="Caminho_1281" data-name="Caminho 1281" d="M21.024,7.511h6.4A11.929,11.929,0,0,1,39.35,19.4v19.9H21.024Z" fill="#09235e"/>
    <path id="Caminho_1282" data-name="Caminho 1282" d="M39.35,39.294V40.9a3.1,3.1,0,0,1-3.1,3.1h-6.4a3.1,3.1,0,0,0,3.1-3.1v-1.61Z" fill="#98b7f7"/>
    <path id="Caminho_1283" data-name="Caminho 1283" d="M21.024,7.511A11.929,11.929,0,0,1,32.953,19.4v19.9H9.136V19.4A11.929,11.929,0,0,1,21.024,7.511Z" fill="#305dce"/>
    <path id="Caminho_1284" data-name="Caminho 1284" d="M9.136,39.294V40.9A3.055,3.055,0,0,0,12.19,44H29.857a3.1,3.1,0,0,0,3.1-3.1v-1.61Z" fill="#fff"/>
    <path id="Caminho_1285" data-name="Caminho 1285" d="M31.178,19.4a10.154,10.154,0,0,0-20.267,0v3.343H31.178Z" fill="#113484"/>
    <path id="Caminho_1286" data-name="Caminho 1286" d="M24.45,9.864A10.154,10.154,0,0,0,17.721,19.4v3.343H31.178V19.4A10.154,10.154,0,0,0,24.45,9.864Z" fill="#09235e"/>
    <path id="Caminho_1287" data-name="Caminho 1287" d="M29.444,23.2h-1.2V15.684h.66a.537.537,0,0,1,.537.537Z" fill="#d954e6"/>
    <path id="Caminho_1288" data-name="Caminho 1288" d="M17.8,15.684H28.247a.537.537,0,0,1,.537.537V23.2H17.267V16.221a.537.537,0,0,1,.537-.537Z" fill="#c136ce"/>
    <path id="Caminho_1289" data-name="Caminho 1289" d="M27.3,23.2H26.1V15.684h.66a.537.537,0,0,1,.537.537Z" fill="#d954e6"/>
    <path id="Caminho_1290" data-name="Caminho 1290" d="M15.616,15.684H26.059a.537.537,0,0,1,.537.537V23.2H15.121V16.221a.537.537,0,0,1,.5-.537Z" fill="#f47fff"/>
    <path id="Caminho_1291" data-name="Caminho 1291" d="M28.247,16.427h-.991V23.18h.991Z" fill="#d4e4ff"/>
    <path id="Caminho_1292" data-name="Caminho 1292" d="M31.178,22.743V19.4a10.154,10.154,0,0,0-20.267,0v3.343" fill="none" stroke="#000" stroke-linecap="round" stroke-miterlimit="10" stroke-width="1"/>
    <path id="Caminho_1293" data-name="Caminho 1293" d="M31.178,33.1V22.743a2.975,2.975,0,0,0-3.8-2.889,3.1,3.1,0,0,0-1.28.826H9.136V33.1Z" fill="#fff"/>
    <path id="Caminho_1294" data-name="Caminho 1294" d="M28.33,19.688a3.013,3.013,0,0,0-2.27,1.032,19.522,19.522,0,0,1-3.591,3.054,15.854,15.854,0,0,1-8.586,2.972c-2.766,0-4.788-1.115-5.737-2.931A2.889,2.889,0,0,1,10.7,19.688Z" fill="#4a76e6"/>
    <path id="Caminho_1295" data-name="Caminho 1295" d="M31.178,21.009v11.64" fill="none" stroke="#000" stroke-linecap="round" stroke-miterlimit="10" stroke-width="1"/>
    <path id="Caminho_1296" data-name="Caminho 1296" d="M35.512,17.418v3.344a.206.206,0,0,0,.413,0V17.418A10.278,10.278,0,0,0,29.32,7.8a3.55,3.55,0,0,0-1.486-.289H25.605a9.948,9.948,0,0,1,9.906,9.906Z"/>
    <path id="Caminho_1297" data-name="Caminho 1297" d="M35.718,32.855a.207.207,0,0,1-.206-.206V21.009a.206.206,0,0,1,.413,0v11.64a.207.207,0,0,1-.206.206Z"/>
    <path id="Caminho_1298" data-name="Caminho 1298" d="M31.136,21.876a.413.413,0,0,0-.454.413l-.165,1.61a.619.619,0,0,0,.619.7.66.66,0,0,0,.66-.7l-.165-1.61a.5.5,0,0,0-.5-.413Z" fill="#f47fff"/>
    <path id="Caminho_1299" data-name="Caminho 1299" d="M35.718,29.182a.454.454,0,0,0-.5.413L35.1,31.2a.625.625,0,1,0,1.238,0l-.124-1.61a.5.5,0,0,0-.5-.413Z" fill="#c136ce"/>
    <path id="Caminho_1300" data-name="Caminho 1300" d="M24.656,32.608h.578l.372.083a1.765,1.765,0,0,0,.041-.206.124.124,0,0,1,.124-.124h.041c.083,0,.124.083.124.165a1.444,1.444,0,0,1-.248.578l.578-.124a1.114,1.114,0,0,1,1.2.5h.206a.619.619,0,0,1,.7.413l.165.867a.578.578,0,0,1-.454.66h-.124a1.114,1.114,0,0,1-.908,1.362L24,37.437a1.156,1.156,0,0,1-1.362-.908H22.51a.578.578,0,0,1-.7-.454l-.165-.826a.578.578,0,0,1,.454-.7H22.3a1.2,1.2,0,0,1,.867-.949h.372a1.4,1.4,0,0,1,1.114-.949Zm-.124-.454a1.776,1.776,0,0,0-.867.454,1.362,1.362,0,0,0-.454.537h-.124a1.857,1.857,0,0,0-.867.5,1.2,1.2,0,0,0-.289.5,1.073,1.073,0,0,0-.743,1.238l.165.867a1.073,1.073,0,0,0,.991.826,1.2,1.2,0,0,0,.537.578,1.568,1.568,0,0,0,1.2.248l3.1-.66a1.651,1.651,0,0,0,.991-.66,1.815,1.815,0,0,0,.289-.784.991.991,0,0,0,.537-1.156l-.165-.826a.99.99,0,0,0-1.156-.826,1.569,1.569,0,0,0-.537-.371,1.032,1.032,0,0,0-.7-.124.661.661,0,0,0-.5-.578.247.247,0,0,0-.248,0,.536.536,0,0,0-.372.206,2.522,2.522,0,0,0-.784,0Z" fill="#d4e4ff"/>
    <path id="Caminho_1301" data-name="Caminho 1301" d="M28.082,35.414l-.413.083-.413-1.981.413-.083a.619.619,0,0,1,.7.454l.165.867a.578.578,0,0,1-.454.66Z" fill="#aabff2"/>
    <path id="Caminho_1302" data-name="Caminho 1302" d="M27.772,33.853l-.283.059a.289.289,0,0,0-.224.342l.117.562a.289.289,0,0,0,.342.224l.283-.059a.289.289,0,0,0,.224-.342l-.117-.562A.289.289,0,0,0,27.772,33.853Z" fill="#7d94df"/>
    <path id="Caminho_1303" data-name="Caminho 1303" d="M22.51,36.57l.413-.083-.413-1.981-.413.083a.578.578,0,0,0-.454.7l.165.826a.578.578,0,0,0,.7.454Z" fill="#aabff2"/>
    <path id="Caminho_1304" data-name="Caminho 1304" d="M22.5,34.951l-.283.059a.289.289,0,0,0-.224.342l.117.562a.289.289,0,0,0,.342.224l.283-.059a.289.289,0,0,0,.224-.342l-.117-.562A.289.289,0,0,0,22.5,34.951Z" fill="#7d94df"/>
    <path id="Caminho_1305" data-name="Caminho 1305" d="M24,37.437l3.055-.66a1.156,1.156,0,0,0,.908-1.362l-.33-1.568a1.156,1.156,0,0,0-1.362-.867l-3.1.619A1.156,1.156,0,0,0,22.3,34.96l.33,1.569A1.156,1.156,0,0,0,24,37.437Z" fill="#aabff2"/>
    <path id="Caminho_1306" data-name="Caminho 1306" d="M25.605,36.034l-.537.124a1.156,1.156,0,0,1-1.362-.908l-.083-.289a.578.578,0,0,1,.454-.66l1.651-.372a.66.66,0,0,1,.7.454v.289a1.114,1.114,0,0,1-.826,1.362Z" fill="#cbdaf7"/>
    <path id="Caminho_1307" data-name="Caminho 1307" d="M25.791,35.236l-.323.067a.124.124,0,0,0-.1.146l.008.04a.124.124,0,0,0,.147.1l.323-.068a.124.124,0,0,0,.1-.147l-.008-.04A.124.124,0,0,0,25.791,35.236Z" fill="#aabff2"/>
    <path id="Caminho_1308" data-name="Caminho 1308" d="M24.9,35.459l-.323.067a.124.124,0,0,0-.1.146l.008.041a.124.124,0,0,0,.146.1l.323-.068a.124.124,0,0,0,.1-.146l-.009-.04A.124.124,0,0,0,24.9,35.459Z" fill="#aabff2"/>
    <path id="Caminho_1309" data-name="Caminho 1309" d="M27.333,34.647a.289.289,0,1,0-.224.342A.289.289,0,0,0,27.333,34.647Z" fill="#333132"/>
    <path id="Caminho_1310" data-name="Caminho 1310" d="M23.456,35.465a.289.289,0,1,0-.224.342A.289.289,0,0,0,23.456,35.465Z" fill="#333132"/>
    <path id="Caminho_1311" data-name="Caminho 1311" d="M23.542,33.6H23.5a1.61,1.61,0,0,1,1.734-1.032l.66.124a1.61,1.61,0,0,1-2.353.908Z" fill="#a9e563"/>
    <path id="Caminho_1312" data-name="Caminho 1312" d="M25.647,32.484a1.155,1.155,0,0,1-.578.867v.206c.041.041.165.083.206.041a1.61,1.61,0,0,0,.7-1.032c0-.083-.041-.165-.124-.165C25.729,32.36,25.688,32.4,25.647,32.484Z" fill="#a9e563"/>
    <path id="Caminho_1313" data-name="Caminho 1313" d="M25.131,33.022a.065.065,0,1,0-.038-.118l-1.057.339c-.043.014-.07.052-.06.084a.074.074,0,0,0,.1.034Z" fill="#6abb6b"/>
    <path id="Caminho_1314" data-name="Caminho 1314" d="M28.082,35.414l-.413.083-.413-1.981.413-.083a.619.619,0,0,1,.7.454l.165.867a.578.578,0,0,1-.454.66Z" fill="#fff"/>
    <path id="Caminho_1315" data-name="Caminho 1315" d="M28.082,35.414l-.413.083-.413-1.981.413-.083a.619.619,0,0,1,.7.454l.165.867a.578.578,0,0,1-.454.66Z" fill="#7a93dc" opacity="0.8"/>
    <path id="Caminho_1316" data-name="Caminho 1316" d="M27.772,33.853l-.283.059a.289.289,0,0,0-.224.342l.117.562a.289.289,0,0,0,.342.224l.283-.059a.289.289,0,0,0,.224-.342l-.117-.562A.289.289,0,0,0,27.772,33.853Z" fill="#7a93dc"/>
    <path id="Caminho_1317" data-name="Caminho 1317" d="M22.51,36.57l.413-.083-.413-1.981-.413.083a.578.578,0,0,0-.454.7l.165.826a.578.578,0,0,0,.7.454Z" fill="#fff"/>
    <path id="Caminho_1318" data-name="Caminho 1318" d="M22.51,36.57l.413-.083-.413-1.981-.413.083a.578.578,0,0,0-.454.7l.165.826a.578.578,0,0,0,.7.454Z" fill="#7a93dc" opacity="0.8"/>
    <path id="Caminho_1319" data-name="Caminho 1319" d="M22.5,34.951l-.283.059a.289.289,0,0,0-.224.342l.117.562a.289.289,0,0,0,.342.224l.283-.059a.289.289,0,0,0,.224-.342l-.117-.562A.289.289,0,0,0,22.5,34.951Z" fill="#7a93dc"/>
    <path id="Caminho_1320" data-name="Caminho 1320" d="M24,37.437l3.055-.66a1.156,1.156,0,0,0,.908-1.362l-.33-1.568a1.156,1.156,0,0,0-1.362-.867l-3.1.619A1.156,1.156,0,0,0,22.3,34.96l.33,1.569A1.156,1.156,0,0,0,24,37.437Z" fill="#fff"/>
    <path id="Caminho_1321" data-name="Caminho 1321" d="M24,37.437l3.055-.66a1.156,1.156,0,0,0,.908-1.362l-.33-1.568a1.156,1.156,0,0,0-1.362-.867l-3.1.619A1.156,1.156,0,0,0,22.3,34.96l.33,1.569A1.156,1.156,0,0,0,24,37.437Z" fill="#7a93dc" opacity="0.6"/>
    <path id="Caminho_1322" data-name="Caminho 1322" d="M25.605,36.034l-.537.124a1.156,1.156,0,0,1-1.362-.908l-.083-.289a.578.578,0,0,1,.454-.66l1.651-.372a.66.66,0,0,1,.7.454v.289a1.114,1.114,0,0,1-.826,1.362Z" fill="#fff"/>
    <path id="Caminho_1323" data-name="Caminho 1323" d="M25.605,36.034l-.537.124a1.156,1.156,0,0,1-1.362-.908l-.083-.289a.578.578,0,0,1,.454-.66l1.651-.372a.66.66,0,0,1,.7.454v.289a1.114,1.114,0,0,1-.826,1.362Z" fill="#7a93dc" opacity="0.3"/>
    <path id="Caminho_1324" data-name="Caminho 1324" d="M25.791,35.236l-.323.067a.124.124,0,0,0-.1.146l.008.04a.124.124,0,0,0,.147.1l.323-.068a.124.124,0,0,0,.1-.147l-.008-.04A.124.124,0,0,0,25.791,35.236Z" fill="#fff"/>
    <path id="Caminho_1325" data-name="Caminho 1325" d="M24.9,35.459l-.323.067a.124.124,0,0,0-.1.146l.008.041a.124.124,0,0,0,.146.1l.323-.068a.124.124,0,0,0,.1-.146l-.009-.04A.124.124,0,0,0,24.9,35.459Z" fill="#fff"/>
    <path id="Caminho_1326" data-name="Caminho 1326" d="M25.791,35.236l-.323.067a.124.124,0,0,0-.1.146l.008.04a.124.124,0,0,0,.147.1l.323-.068a.124.124,0,0,0,.1-.147l-.008-.04A.124.124,0,0,0,25.791,35.236Z" fill="#7a93dc" opacity="0.6"/>
    <path id="Caminho_1327" data-name="Caminho 1327" d="M24.9,35.459l-.323.067a.124.124,0,0,0-.1.146l.008.041a.124.124,0,0,0,.146.1l.323-.068a.124.124,0,0,0,.1-.146l-.009-.04A.124.124,0,0,0,24.9,35.459Z" fill="#7a93dc" opacity="0.6"/>
    <path id="Caminho_1328" data-name="Caminho 1328" d="M27.333,34.647a.289.289,0,1,0-.224.342A.289.289,0,0,0,27.333,34.647Z" fill="#333132"/>
    <path id="Caminho_1329" data-name="Caminho 1329" d="M23.456,35.465a.289.289,0,1,0-.224.342A.289.289,0,0,0,23.456,35.465Z" fill="#333132"/>
    <path id="Caminho_1330" data-name="Caminho 1330" d="M23.542,33.6H23.5a1.61,1.61,0,0,1,1.734-1.032l.66.124a1.61,1.61,0,0,1-2.353.908Z" fill="#a7e163"/>
    <path id="Caminho_1331" data-name="Caminho 1331" d="M25.647,32.484a1.155,1.155,0,0,1-.578.867v.206c.041.041.165.083.206.041a1.61,1.61,0,0,0,.7-1.032c0-.083-.041-.165-.124-.165C25.729,32.36,25.688,32.4,25.647,32.484Z" fill="#a7e163"/>
    <path id="Caminho_1332" data-name="Caminho 1332" d="M25.131,33.022a.065.065,0,1,0-.038-.118l-1.057.339c-.043.014-.07.052-.06.084a.074.074,0,0,0,.1.034Z" fill="#6abb6b"/>
    <path id="Caminho_1333" data-name="Caminho 1333" d="M25.688,24.146l-1.486,1.9.33,2.394,1.9,1.445,1.486-1.9-.33-2.394Zm1.321,3.591-.7.949-.991-.7-.206-1.692.743-.949.949.743Z" fill="#fb68f8"/>
    <path id="Caminho_1334" data-name="Caminho 1334" d="M25.688,24.146l1.9,1.445.33,2.394-1.445,1.9-1.94-1.445-.33-2.394Zm0-.33a.372.372,0,0,0-.289.124l-1.445,1.94a.33.33,0,0,0-.083.206l.33,2.394a.372.372,0,0,0,.124.206l1.94,1.486h.248a.206.206,0,0,0,.206-.124l1.445-1.9a.578.578,0,0,0,.083-.248l-.33-2.353a.371.371,0,0,0-.124-.206L25.853,23.9Z" fill="#ffc0ff"/>
    <path id="Caminho_1335" data-name="Caminho 1335" d="M25.688,24.146l.165,1.2.949.743.784-.5Z" fill="#ffaafc"/>
    <path id="Caminho_1336" data-name="Caminho 1336" d="M25.316,27.985l-.784.454,1.9,1.445-.124-1.2Z" fill="#e74fd5"/>
    <path id="Caminho_1337" data-name="Caminho 1337" d="M25.11,26.292l.206,1.692.991.7.7-.949L26.8,26.086l-.949-.743Z" fill="#ffcdf9"/>
    <path id="Caminho_1338" data-name="Caminho 1338" d="M26.8,26.086l-1.445,1.9h-.041l-.041-.454,1.238-1.651Z" fill="#fff"/>
    <path id="Caminho_1339" data-name="Caminho 1339" d="M26.885,26.7l.041.454-.949,1.28-.289-.206Z" fill="#fff"/>
    <path id="Caminho_1340" data-name="Caminho 1340" d="M27.339,25.508l.206.33c.041.083.124.083.165-.041l.083-.372a.041.041,0,0,1,.041-.041l.33-.206a.083.083,0,0,0,0-.165l-.372-.083H27.71l-.165-.33a.124.124,0,0,0-.206,0l-.083.372c0,.041,0,.083-.041.083l-.33.165a.125.125,0,0,0-.041.045.124.124,0,0,0,.041.162H27.3C27.3,25.467,27.339,25.467,27.339,25.508Z" fill="#fff"/>
    <path id="Caminho_1341" data-name="Caminho 1341" d="M27.463,24.476l.083.083.165.33h.082l.372.083a.083.083,0,0,1,0,.165l-.33.206a.041.041,0,0,0-.041.041l-.082.372c0,.083-.041.083-.083.083s-.082,0-.082-.041l-.206-.33c0-.041-.041-.041-.041-.083h-.413a.124.124,0,0,1,0-.206l.33-.165c.041,0,.041-.041.041-.083l.083-.372Zm0-.33a.5.5,0,0,0-.454.372v.248l-.248.124a.416.416,0,0,0,.124.784l.248.083.124.248a.5.5,0,0,0,.413.206.413.413,0,0,0,.413-.33v-.248l.248-.124a.412.412,0,0,0,.206-.454.371.371,0,0,0-.33-.372h-.248l-.124-.248a.536.536,0,0,0-.372-.248Z" fill="#ffc0ff"/>
    <path id="Caminho_1342" data-name="Caminho 1342" d="M44.015,16.427a.413.413,0,1,0-.826,0v.417a.413.413,0,1,0,.826,0Z" fill="#4a76e6"/>
    <path id="Caminho_1343" data-name="Caminho 1343" d="M44.015,19.729a.413.413,0,1,0-.826,0v.417a.413.413,0,0,0,.826,0Z" fill="#4a76e6"/>
    <path id="Caminho_1344" data-name="Caminho 1344" d="M45.5,18.739a.413.413,0,1,0,0-.826h-.417a.413.413,0,0,0,0,.826Z" fill="#4a76e6"/>
    <path id="Caminho_1345" data-name="Caminho 1345" d="M42.157,18.7a.413.413,0,1,0,0-.826H41.74a.413.413,0,1,0,0,.826Z" fill="#4a76e6"/>
    <path id="Caminho_1346" data-name="Caminho 1346" d="M2.655,8.791l-.619,1.321a.371.371,0,0,0,.5.5l1.321-.66a.371.371,0,0,1,.289,0l1.321.66a.371.371,0,0,0,.454-.5L5.3,8.791a.371.371,0,0,1,0-.289l.619-1.321a.33.33,0,0,0-.454-.454l-1.321.619a.372.372,0,0,1-.289,0L2.532,6.727a.371.371,0,0,0-.5.454L2.655,8.5a.206.206,0,0,1,0,.289Z" fill="#ffefc9"/>
    <path id="Caminho_1347" data-name="Caminho 1347" d="M5.008,33.1a.31.31,0,1,0-.619,0V33.4a.31.31,0,1,0,.619,0Z" fill="#fff"/>
    <path id="Caminho_1348" data-name="Caminho 1348" d="M5.008,35.662a.31.31,0,1,0-.619,0v.293a.31.31,0,1,0,.619,0Z" fill="#fff"/>
    <path id="Caminho_1349" data-name="Caminho 1349" d="M6.123,34.836a.31.31,0,1,0,0-.619H5.83a.31.31,0,1,0,0,.619Z" fill="#fff"/>
    <path id="Caminho_1350" data-name="Caminho 1350" d="M3.563,34.836a.31.31,0,1,0,0-.619H3.27a.31.31,0,1,0,0,.619Z" fill="#fff"/>
    <path id="Caminho_1351" data-name="Caminho 1351" d="M18.547,33.722a2.889,2.889,0,0,1-1.775,1.238,2.144,2.144,0,0,1-.7.083,2.848,2.848,0,0,1-2.683-2.105,1.7,1.7,0,0,1-.041-.454H13.3a.661.661,0,0,1-.578-.826c0-.041.041-.124.041-.165l-.454-.082a.868.868,0,0,1-.454-.33.619.619,0,0,1-.124-.537.743.743,0,0,1,.743-.578h.248l.619.124h.083v-.33a.826.826,0,0,1,.867-.619h.124l2.353.454a2.89,2.89,0,0,1,2.064,2.064,2.6,2.6,0,0,1-.289,2.064Z" fill="#fff"/>
    <path id="Caminho_1352" data-name="Caminho 1352" d="M16.648,34.506H16.07a2.312,2.312,0,0,1-2.188-1.692,1.528,1.528,0,0,1-.041-.743l-.454-.083a.33.33,0,0,1-.206-.289.289.289,0,0,1,.248-.165h.041l.66.124h.041c.083,0,.206-.041.206-.165A.164.164,0,0,0,14.4,31.4a.165.165,0,0,0-.188-.159l-1.032-.206a.331.331,0,0,1-.206-.289.206.206,0,0,1,.248-.165h.041l1.445.289h.041A.289.289,0,0,0,15,30.709a.331.331,0,0,0-.206-.289l-.578-.124a.33.33,0,0,1-.289-.413.289.289,0,0,1,.372-.248h.041l2.311.454a2.394,2.394,0,0,1,1.734,1.692,2.27,2.27,0,0,1-1.734,2.724Z" fill="#fff"/>
    <path id="Caminho_1353" data-name="Caminho 1353" d="M12.521,30.874a.211.211,0,1,0,.083-.413h-.124c-.124,0-.248.083-.248.165a.248.248,0,0,0,.165.289Zm4.128,3.632a2.27,2.27,0,0,0,1.734-2.724,2.394,2.394,0,0,0-1.734-1.692l-2.312-.454a.336.336,0,0,0-.392.268.336.336,0,0,0,.268.392l.578.124a.33.33,0,0,1,.206.289.289.289,0,0,1-.289.165l-1.445-.289a.248.248,0,0,0-.289.165.33.33,0,0,0,.206.289l1.032.206a.21.21,0,0,1-.083.413l-.66-.124a.289.289,0,0,0-.289.165.331.331,0,0,0,.206.289l.454.082a1.527,1.527,0,0,0,.041.743,2.353,2.353,0,0,0,2.766,1.692Zm-1.816-1.94a1.333,1.333,0,1,1,1.61.991,1.362,1.362,0,0,1-1.61-.991Z" fill="#4a6fe6" fill-rule="evenodd"/>
    <path id="Caminho_1354" data-name="Caminho 1354" d="M16.69,31.617l-.784-.165h-.124l-.5.578a.164.164,0,0,0-.041.124l.248.743h.083l.784.165c.041,0,.083,0,.083-.041l.537-.578a.165.165,0,0,0,.041-.124l-.289-.743Z" fill="#aec7ff"/>
    <path id="Caminho_1355" data-name="Caminho 1355" d="M30.765,23.981a.392.392,0,0,0,.784,0Z" fill="#e74fd5"/>
    <path id="Caminho_1356" data-name="Caminho 1356" d="M35.347,31.245a.372.372,0,0,0,.372.413.413.413,0,0,0,.413-.413Z" fill="#a120ad"/>
  </g>
</svg>
