<svg id="volume_up_lock_rounded" xmlns="http://www.w3.org/2000/svg" width="24" height="24" viewBox="0 0 24 24">
  <path id="bg" d="M0,0H24V24H0Z" fill="none"/>
  <path id="Sketch-volume_up" d="M-2371.617-872.114a.9.9,0,0,1-.383-.742v-.2a.919.919,0,0,1,.6-.85,6.987,6.987,0,0,0,4.381-5.961h0a1.011,1.011,0,0,1,.01-.145c0-.079.008-.158.009-.238v.184a1,1,0,0,1,.98-.8,1,1,0,0,1,1,1h0A9,9,0,0,1-2370.79-872a.883.883,0,0,1-.31.056A.888.888,0,0,1-2371.617-872.114Zm-4.093-2L-2379-877.4h-3a1,1,0,0,1-1-1v-4a1,1,0,0,1,1-1h3l3.29-3.3a1,1,0,0,1,.71-.3,1,1,0,0,1,.384.076A1,1,0,0,1-2374-886v11.171a1,1,0,0,1-.616.929.987.987,0,0,1-.384.076A1,1,0,0,1-2375.71-874.115Zm3.711-2.27h0v-4.48h2.476a4.559,4.559,0,0,1,.023.462,4.474,4.474,0,0,1-.674,2.368,4.477,4.477,0,0,1-1.823,1.651Z" transform="translate(2386 892.865)" fill="#99aab5"/>
  <path id="Sketch-lock" d="M10.125,4H9.688V3.143a2.188,2.188,0,0,0-4.375,0V4H4.875A.869.869,0,0,0,4,4.857V9.143A.869.869,0,0,0,4.875,10h5.25A.869.869,0,0,0,11,9.143V4.857A.869.869,0,0,0,10.125,4ZM7.5,7.857A.857.857,0,1,1,8.375,7,.869.869,0,0,1,7.5,7.857ZM6.188,4V3.143a1.313,1.313,0,0,1,2.625,0V4Z" transform="translate(12)" fill="#99aab5"/>
</svg>
